<?xml version="1.0" encoding="UTF-8" standalone="no"?>
<!DOCTYPE svg  PUBLIC '-//W3C//DTD SVG 1.1//EN'  'http://www.w3.org/Graphics/SVG/1.1/DTD/svg11.dtd'>
<svg xmlns="http://www.w3.org/2000/svg">
<defs>
<font id="QuattrocentoSans-Regular" horiz-adv-x="642">
<font-face underline-position="-47" font-weight="400" descent="-200" panose-1="2 11 5 2 5 0 0 2 0 3" units-per-em="1000" unicode-range="U+0020-2212" bbox="-43 -260 1143 848" x-height="460" underline-thickness="48" font-family="QuattrocentoSans" ascent="800" cap-height="660"/>
<missing-glyph horiz-adv-x="1000"/>
<glyph glyph-name=".notdef" horiz-adv-x="1000"/>
<glyph glyph-name=".null" horiz-adv-x="0"/>
<glyph glyph-name="nonmarkingreturn" horiz-adv-x="333"/>
<glyph glyph-name="space" horiz-adv-x="245" unicode=" "/>
<glyph glyph-name="exclam" horiz-adv-x="258" unicode="!" d="M152 150h-47l-24 532h97zM83 35q0 19 14 33.5t33 14.5q18 0 32.5 -14.5t14.5 -33.5q0 -18 -14.5 -32t-32.5 -14q-19 0 -33 13.5t-14 32.5z"/>
<glyph glyph-name="quotedbl" horiz-adv-x="334" unicode='&quot;' d="M253 516h-36l-21 216h81zM116 516h-36l-21 216h81z"/>
<glyph glyph-name="numbersign" horiz-adv-x="614" unicode="#" d="M255 394l-26 -119h126l26 119h-126zM500 654l-44 -208h121l-10 -52h-122l-26 -119h128l-10 -53h-129l-47 -222h-64l47 222h-126l-47 -222h-64l47 222h-116l10 53h117l26 119h-123l10 52h124l44 208h64l-44 -208h126l44 208h64z"/>
<glyph glyph-name="dollar" horiz-adv-x="529" unicode="$" d="M132 501q0 -39 24 -59.5t84 -42.5v198q-108 -10 -108 -96zM412 162q0 83 -112 129v-234q112 15 112 105zM300 750v-86q85 -6 151 -37l-21 -77q-45 39 -130 47v-219q42 -14 70 -27.5t58.5 -36.5t45.5 -57.5t15 -80.5q0 -86 -52.5 -132t-136.5 -54v-86h-60v85 q-110 4 -197 54l21 73q43 -30 81 -45t95 -17v259q-93 32 -137 72t-44 113q0 77 49 118t132 47v87h60z"/>
<glyph glyph-name="percent" horiz-adv-x="818" unicode="%" d="M631 38q48 0 71.5 38.5t23.5 101.5q0 65 -24 103t-70 38q-89 0 -89 -137q0 -71 23 -107.5t65 -36.5zM634 364q67 0 107 -53.5t40 -130.5t-40.5 -132t-110.5 -55q-68 0 -105.5 52.5t-37.5 130.5q0 81 40 134.5t107 53.5zM672 691l-463 -715h-65l463 715h65zM183 339 q48 0 71.5 38.5t23.5 101.5q0 65 -24 103t-70 38q-89 0 -89 -137q0 -71 23 -107.5t65 -36.5zM186 665q67 0 107 -53.5t40 -130.5t-40.5 -132t-110.5 -55q-68 0 -105.5 52.5t-37.5 130.5q0 81 40 134.5t107 53.5z"/>
<glyph glyph-name="ampersand" horiz-adv-x="701" unicode="&amp;" d="M303 54q91 0 146 57l-208 213q-47 -16 -74.5 -53.5t-27.5 -85.5q0 -62 45.5 -96.5t118.5 -34.5zM418 390l251 37v-62l-134 -12q31 -57 31 -118q0 -65 -34 -122l110 -113h-84l-64 65q-77 -77 -200 -77q-109 0 -170 55t-61 133q0 58 35 112.5t99 81.5q-61 70 -61 146 q0 71 42 110t106 39q68 0 139 -44l-20 -71q-52 50 -117 50q-35 0 -57.5 -22t-22.5 -67q0 -60 51 -113l228 -236q16 38 16 77q0 56 -33 108l-50 -4v47z"/>
<glyph glyph-name="quotesingle" horiz-adv-x="197" unicode="&apos;" d="M116 516h-36l-21 216h81z"/>
<glyph glyph-name="parenleft" horiz-adv-x="311" unicode="(" d="M252 771l38 -13q-81 -91 -115.5 -192.5t-34.5 -238.5q0 -51 4 -92.5t17.5 -100.5t46 -119.5t81.5 -118.5l-37 -13q-96 86 -149 201.5t-53 242.5q0 126 53 241t149 203z"/>
<glyph glyph-name="parenright" horiz-adv-x="311" unicode=")" d="M21 758l38 13q96 -88 149 -203t53 -241q0 -127 -53 -242.5t-149 -201.5l-37 13q49 58 81.5 118.5t46 119.5t17.5 100.5t4 92.5q0 137 -34.5 238.5t-115.5 192.5z"/>
<glyph glyph-name="asterisk" horiz-adv-x="439" unicode="*" d="M253 702l-16 -134l108 81l33 -58l-123 -54l123 -53l-32 -57l-109 79l15 -132h-65l14 132l-108 -79l-32 57l123 53l-123 54l33 58l107 -81l-14 134h66z"/>
<glyph glyph-name="plus" horiz-adv-x="497" unicode="+" d="M274 427v-162h172v-52h-172v-172h-52v172h-171v52h171v162h52z"/>
<glyph glyph-name="comma" horiz-adv-x="243" unicode="," d="M88 -97l-20 19l39 73h-25v90h79v-105z"/>
<glyph glyph-name="hyphen" horiz-adv-x="486" unicode="-" d="M74 265h338v-52h-338v52z"/>
<glyph glyph-name="period" horiz-adv-x="235" unicode="." d="M71 35q0 19 13.5 33.5t32.5 14.5t33.5 -14.5t14.5 -33.5t-14.5 -32.5t-33.5 -13.5t-32.5 13.5t-13.5 32.5z"/>
<glyph glyph-name="slash" horiz-adv-x="424" unicode="/" d="M389 702l-278 -759h-75l278 759h75z"/>
<glyph glyph-name="zero" horiz-adv-x="649" unicode="0" d="M320 54q94 0 141.5 75.5t47.5 196.5q0 126 -47.5 199.5t-139.5 73.5q-93 0 -136.5 -71.5t-43.5 -195.5q0 -136 46.5 -207t131.5 -71zM325 665q123 0 194.5 -97.5t71.5 -238.5q0 -90 -30.5 -166.5t-94 -125.5t-148.5 -49q-123 0 -191 96t-68 238q0 147 72 245t194 98z"/>
<glyph glyph-name="one" horiz-adv-x="317" unicode="1" d="M218 660v-660h-75v526l-96 -46l-22 70z"/>
<glyph glyph-name="two" horiz-adv-x="509" unicode="2" d="M74 550l-18 66q89 49 195 49q87 0 140.5 -45t53.5 -117q0 -52 -33.5 -112.5t-72 -102.5t-107.5 -112.5t-100 -105.5h320v-70h-405v70q36 46 99 112t105.5 111t76.5 102.5t34 106.5q0 97 -113 97q-44 0 -95.5 -14t-79.5 -35z"/>
<glyph glyph-name="three" horiz-adv-x="535" unicode="3" d="M95 550l-18 66q34 21 83 35t89 14q91 0 144 -44.5t53 -127.5q0 -40 -27 -76t-68 -58q127 -43 127 -166q0 -88 -64 -146.5t-182 -58.5q-116 0 -195 62l20 67q78 -63 172 -63q81 0 123.5 37.5t42.5 109.5q0 124 -168 124h-27v57h31q62 0 97 32t35 87q0 98 -108 98 q-44 0 -89.5 -14t-70.5 -35z"/>
<glyph glyph-name="four" horiz-adv-x="508" unicode="4" d="M116 280h199v271zM459 280v-70h-69v-210h-75v210h-284v70l279 380h80v-380h69z"/>
<glyph glyph-name="five" horiz-adv-x="538" unicode="5" d="M106 302l-29 15l37 348h339v-70h-276l-26 -213q73 16 128 16q93 0 150.5 -50.5t57.5 -139.5q0 -94 -63.5 -157t-181.5 -63q-116 0 -195 62l21 70q83 -66 175 -66q77 0 119.5 38t42.5 109q0 61 -36 93.5t-121 32.5q-77 0 -142 -25z"/>
<glyph glyph-name="six" horiz-adv-x="551" unicode="6" d="M423 199q0 61 -30 101t-97 40q-72 0 -108.5 -40.5t-36.5 -106.5t36.5 -105t101.5 -39q62 0 98 40t36 110zM134 328l3 -1q40 74 164 74q48 0 85 -14.5t58 -36t34.5 -50t18 -53t4.5 -49.5q0 -83 -53 -146.5t-159 -63.5q-226 0 -226 311q0 73 12 135t39 115.5t77.5 84 t119.5 30.5q107 0 158 -48l-17 -66q-60 49 -140 49q-49 0 -85.5 -21t-56 -57.5t-28.5 -77t-9 -86.5q0 -19 1 -29z"/>
<glyph glyph-name="seven" horiz-adv-x="457" unicode="7" d="M167 0h-87q-1 12 -1 39q0 117 87 275.5t196 280.5h-322v70h405v-70q-103 -101 -191 -273.5t-88 -281.5q0 -28 1 -40z"/>
<glyph glyph-name="eight" horiz-adv-x="558" unicode="8" d="M385 501q0 101 -107 101t-107 -101q0 -51 28 -82t79 -31t79 31t28 82zM417 181q0 62 -34.5 104.5t-104.5 42.5q-71 0 -105 -42.5t-34 -104.5q0 -63 36 -97.5t103 -34.5t103 34.5t36 97.5zM379 366v-4q57 -13 89 -59.5t32 -114.5q0 -88 -56 -144t-166 -56 q-112 0 -166 56.5t-54 141.5q0 66 32 112t89 63v4q-38 14 -63 51t-25 89q0 72 50 116t138 44q87 0 137.5 -42.5t50.5 -114.5q0 -50 -24.5 -87.5t-63.5 -54.5z"/>
<glyph glyph-name="nine" horiz-adv-x="552" unicode="9" d="M129 453q0 -61 30 -101t97 -40q72 0 108.5 40.5t36.5 106.5t-36.5 105t-101.5 39q-62 0 -98 -40t-36 -110zM418 324l-3 1q-40 -74 -164 -74q-48 0 -85 14.5t-58 36t-34.5 50t-18 53t-4.5 49.5q0 83 53 146.5t159 63.5q226 0 226 -311q0 -73 -12 -135t-39 -115.5 t-77.5 -84t-119.5 -30.5q-107 0 -158 48l17 66q60 -49 140 -49q49 0 85.5 21t56 57.5t28.5 77t9 86.5q0 19 -1 29z"/>
<glyph glyph-name="colon" horiz-adv-x="242" unicode=":" d="M74 408q0 19 13.5 33t32.5 14t33.5 -14t14.5 -33t-14.5 -33t-33.5 -14t-32.5 13.5t-13.5 33.5zM74 35q0 19 13.5 33.5t32.5 14.5t33.5 -14.5t14.5 -33.5t-14.5 -32.5t-33.5 -13.5t-32.5 13.5t-13.5 32.5z"/>
<glyph glyph-name="semicolon" horiz-adv-x="254" unicode=";" d="M95 -97l-20 19l39 73h-25v90h79v-105zM83 408q0 19 13.5 33t32.5 14t33.5 -14t14.5 -33t-14.5 -33t-33.5 -14t-32.5 13.5t-13.5 33.5z"/>
<glyph glyph-name="less" horiz-adv-x="408" unicode="&lt;" d="M144 243v-5l198 -133l-18 -64l-286 197v5l285 194l18 -63z"/>
<glyph glyph-name="equal" horiz-adv-x="490" unicode="=" d="M76 341h338v-52h-338v52zM76 189h338v-52h-338v52z"/>
<glyph glyph-name="greater" horiz-adv-x="408" unicode="&gt;" d="M264 238v5l-197 131l18 63l285 -194v-5l-286 -197l-18 64z"/>
<glyph glyph-name="question" horiz-adv-x="412" unicode="?" d="M58 571l-18 66q27 21 67.5 35t77.5 14q80 0 127 -44.5t47 -117.5q0 -33 -15 -66.5t-36.5 -64.5t-42.5 -65t-36.5 -80t-15.5 -97h-64q0 56 14 103.5t34.5 80.5t41 62.5t34.5 62t14 65.5q0 42 -26.5 69t-76.5 27q-32 0 -68.5 -14.5t-57.5 -35.5zM137 36q0 19 13.5 33 t32.5 14t33.5 -14t14.5 -33t-14.5 -33t-33.5 -14t-32.5 14t-13.5 33z"/>
<glyph glyph-name="at" horiz-adv-x="723" unicode="@" d="M578 27v-50q-26 -25 -90.5 -51.5t-137.5 -26.5q-123 0 -208 78t-85 203q0 47 12.5 96.5t41 98.5t68.5 87.5t99.5 62t130.5 23.5q68 0 121.5 -21.5t85.5 -57.5t48.5 -79t16.5 -89q0 -92 -57.5 -159.5t-146.5 -67.5q-45 0 -59 18t-14 55q-16 -33 -42 -53.5t-52 -20.5 q-33 0 -58.5 32t-25.5 88q0 85 59.5 140.5t131.5 55.5q66 0 98 -33l-37 -178q-4 -30 -4 -35q0 -28 29 -28q51 0 84 55.5t33 126.5q0 83 -53.5 143.5t-158.5 60.5q-90 0 -157.5 -49t-99 -120.5t-31.5 -151.5q0 -117 68 -175t172 -58q73 0 129.5 25.5t88.5 54.5zM417 229 l24 121q-6 6 -25 6q-41 0 -70.5 -30.5t-41.5 -69t-12 -76.5q0 -64 32 -64q25 0 55 37t38 76z"/>
<glyph glyph-name="A" d="M313 576l-112 -284h236zM360 660l290 -660h-85l-97 222h-295l-88 -222h-80l264 660h91z" unicode="A"/>
<glyph glyph-name="B" horiz-adv-x="559" unicode="B" d="M235 382q62 0 97 32t35 87q0 98 -108 98q-33 0 -85 -2v-214q19 -1 61 -1zM261 54q81 0 123.5 37.5t42.5 109.5q0 124 -168 124q-33 0 -85 -2v-266q39 -3 87 -3zM99 0v660q72 5 154 5q91 0 144 -44.5t53 -127.5q0 -84 -68 -128q128 -43 128 -172q0 -88 -64 -146.5 t-182 -58.5q-79 0 -165 12z"/>
<glyph glyph-name="C" d="M588 622l-21 -72q-73 49 -186 49q-241 0 -241 -268q0 -137 60.5 -207t178.5 -70q125 0 201 62l20 -67q-101 -61 -224 -61q-105 0 -178.5 47t-107 121t-33.5 167q0 149 86.5 245.5t243.5 96.5q115 0 201 -43z" unicode="C"/>
<glyph glyph-name="D" horiz-adv-x="704" unicode="D" d="M323 599q-86 0 -149 -3v-536q63 -6 151 -6q118 0 178.5 70t60.5 207q0 268 -241 268zM99 0v660h5q157 5 213 5q143 0 229 -75q101 -91 101 -267q0 -93 -33.5 -167t-107 -121t-178.5 -47q-109 0 -229 12z"/>
<glyph glyph-name="E" horiz-adv-x="522" unicode="E" d="M481 70v-70h-382v660h362v-70h-287v-205h220v-70h-220v-245h307z"/>
<glyph glyph-name="F" horiz-adv-x="480" unicode="F" d="M383 385v-70h-209v-315h-75v660h357v-70h-282v-205h209z"/>
<glyph glyph-name="G" horiz-adv-x="672" unicode="G" d="M607 272v-217q-99 -67 -231 -67q-105 0 -178.5 47t-107 121t-33.5 167q0 149 86.5 245.5t243.5 96.5q117 0 211 -43l-21 -72q-73 49 -196 49q-241 0 -241 -268q0 -137 60.5 -207t178.5 -70q82 0 153 32v186h75z"/>
<glyph glyph-name="H" horiz-adv-x="704" unicode="H" d="M174 660v-285h356v285h75v-660h-75v305h-356v-305h-75v660h75z"/>
<glyph glyph-name="I" horiz-adv-x="273" unicode="I" d="M174 660v-660h-75v660h75z"/>
<glyph glyph-name="J" horiz-adv-x="272" unicode="J" d="M174 660v-559q0 -112 -44.5 -184.5t-129.5 -72.5l-14 55q30 0 52 13t33.5 31.5t18 48t8 53.5t1.5 57v558h75z"/>
<glyph glyph-name="K" horiz-adv-x="598" unicode="K" d="M174 660v-312q48 32 102 85q108 106 191 227h86q-90 -133 -226 -269q-15 -15 -39 -37l306 -354h-93l-268 306l-59 -45v-261h-75v660h75z"/>
<glyph glyph-name="L" horiz-adv-x="486" unicode="L" d="M469 70v-70h-370v660h75v-590h295z"/>
<glyph glyph-name="M" horiz-adv-x="843" unicode="M" d="M200 660l224 -566l224 566h96v-660h-75v499l-202 -499h-90l-203 500v-500h-75v660h101z"/>
<glyph glyph-name="N" horiz-adv-x="704" unicode="N" d="M514 0l-340 540v-540h-75v660h91l340 -541v541h75v-660h-91z"/>
<glyph glyph-name="O" horiz-adv-x="756" unicode="O" d="M373 54q124 0 184.5 75t60.5 197q0 127 -60.5 200t-182.5 73q-123 0 -179.5 -71t-56.5 -196q0 -137 60 -207.5t174 -70.5zM378 665q150 0 236 -97t86 -239q0 -67 -21 -127.5t-61 -108.5t-104 -76.5t-143 -28.5q-102 0 -175 47t-106.5 121t-33.5 166q0 148 86 245.5 t236 97.5z"/>
<glyph glyph-name="P" horiz-adv-x="529" unicode="P" d="M254 599q-32 0 -80 -2v-280q36 -3 82 -3q149 0 149 147q0 138 -151 138zM99 0v660h4q108 5 145 5q110 0 175 -55t65 -157q0 -89 -58.5 -147t-170.5 -58q-47 0 -85 3v-251h-75z"/>
<glyph glyph-name="Q" horiz-adv-x="759" unicode="Q" d="M377 54q123 0 183 75.5t60 199.5q0 125 -61 197.5t-184 72.5q-121 0 -177.5 -71.5t-56.5 -198.5q0 -135 60.5 -205t175.5 -70zM380 665q150 0 236 -97t86 -239q0 -88 -33.5 -162t-105 -123.5t-170.5 -54.5q40 -5 132 -40.5t146 -35.5q40 0 85 19l-19 -64q-31 -16 -74 -16 q-59 0 -159 44.5t-142 44.5q-69 0 -123 -41l-14 47q50 37 117 42q-137 10 -210.5 104t-73.5 229q0 148 86 245.5t236 97.5z"/>
<glyph glyph-name="R" horiz-adv-x="595" unicode="R" d="M254 599q-32 0 -80 -2v-247q24 -2 82 -2q149 0 149 135q0 116 -151 116zM99 0v660q118 5 149 5q110 0 175 -49.5t65 -140.5q0 -66 -37.5 -115.5t-109.5 -68.5l253 -291h-93l-247 282q-44 0 -80 3v-285h-75z"/>
<glyph glyph-name="S" horiz-adv-x="551" unicode="S" d="M138 501q0 -46 33.5 -67.5t133.5 -54.5q46 -15 75 -28.5t61 -36.5t48 -57.5t16 -80.5q0 -96 -68 -142t-170 -46q-119 0 -218 55l21 73q46 -31 87 -46.5t104 -15.5q86 0 126.5 29t40.5 79q0 26 -11.5 47.5t-26 35.5t-42 28t-45 20.5t-49.5 16.5q-96 32 -142.5 72.5 t-46.5 115.5q0 85 58.5 126t154.5 41q106 0 189 -38l-21 -77q-57 49 -172 49q-136 0 -136 -98z"/>
<glyph glyph-name="T" horiz-adv-x="533" unicode="T" d="M515 660v-70h-211v-590h-75v590h-211v70h497z"/>
<glyph glyph-name="U" horiz-adv-x="688" unicode="U" d="M167 660v-404q0 -202 179 -202q180 0 180 202v404h70v-438q0 -103 -64 -168t-186 -65q-133 0 -193.5 63.5t-60.5 169.5v438h75z"/>
<glyph glyph-name="V" horiz-adv-x="644" unicode="V" d="M281 0l-288 660h85l251 -576l229 576h80l-262 -660h-95z"/>
<glyph glyph-name="W" horiz-adv-x="1081" unicode="W" d="M740 0l-200 546l-186 -546h-95l-260 660h85l222 -565l193 565h85l205 -563l201 563h80l-235 -660h-95z"/>
<glyph glyph-name="X" horiz-adv-x="646" unicode="X" d="M541 0l-221 285l-219 -285h-86l262 341l-247 319h89l206 -267l206 267h86l-249 -323l262 -337h-89z"/>
<glyph glyph-name="Y" horiz-adv-x="566" unicode="Y" d="M246 267l-257 393h89l209 -317l202 317h87l-255 -389v-271h-75v267z"/>
<glyph glyph-name="Z" horiz-adv-x="554" unicode="Z" d="M511 70v-70h-468v70l368 520h-353v70h438v-70l-368 -520h383z"/>
<glyph glyph-name="bracketleft" horiz-adv-x="286" unicode="[" d="M250 -53v-42h-160v844h160v-42h-95v-760h95z"/>
<glyph glyph-name="backslash" horiz-adv-x="422" unicode="\" d="M313 -57l-278 759h73l278 -759h-73z"/>
<glyph glyph-name="bracketright" horiz-adv-x="286" unicode="]" d="M36 707v42h160v-844h-160v42h95v760h-95z"/>
<glyph glyph-name="asciicircum" horiz-adv-x="348" unicode="^" d="M170 673h8l110 -99l3 -7l-6 -19l-7 -3l-104 61l-104 -61l-7 3l-6 19l3 7z"/>
<glyph glyph-name="underscore" horiz-adv-x="489" unicode="_" d="M28 0h433v-52h-433v52z"/>
<glyph glyph-name="grave" horiz-adv-x="219" unicode="`" d="M213 552l-8 -3l-201 77q-4 9 -4 19q0 33 35 35l181 -101l3 -7z"/>
<glyph glyph-name="a" horiz-adv-x="498" unicode="a" d="M193 47q43 0 89 27t73 74v93h-9q-38 0 -66.5 -2t-61.5 -8.5t-54 -18.5t-35.5 -33.5t-14.5 -51.5q0 -38 21 -59t58 -21zM425 0h-55l-8 82h-4q-25 -39 -78 -66.5t-108 -27.5q-63 0 -97.5 37.5t-34.5 97.5q0 44 20 76.5t48 49.5t67.5 27.5t70 13t64.5 2.5h45v12q0 64 -41 92 q-31 20 -88 20q-69 0 -136 -40l-16 60q67 39 160 39q82 0 128 -29q63 -40 63 -133v-313z"/>
<glyph glyph-name="b" horiz-adv-x="575" unicode="b" d="M317 47q70 0 103 52.5t33 126.5q0 85 -40.5 137.5t-108.5 52.5q-53 0 -95.5 -32.5t-60.5 -88.5v-147q28 -47 74 -74t95 -27zM325 -12q-60 0 -107 27t-73 67h-4l-8 -82h-55v740h70v-366q13 44 58 72.5t108 28.5q102 0 157.5 -70.5t55.5 -175.5q0 -102 -52.5 -171.5 t-149.5 -69.5z"/>
<glyph glyph-name="c" horiz-adv-x="500" unicode="c" d="M454 435l-17 -59q-23 18 -67 31t-85 13q-82 0 -122.5 -51.5t-40.5 -128.5q0 -83 45 -140t125 -57q40 0 82.5 17t70.5 43l14 -65q-77 -50 -180 -50q-111 0 -171 70.5t-60 175.5q0 104 60 172.5t178 68.5q106 0 168 -40z"/>
<glyph glyph-name="d" horiz-adv-x="575" unicode="d" d="M258 47q49 0 95.5 26.5t73.5 74.5v147q-18 56 -60.5 88.5t-95.5 32.5q-68 0 -108.5 -52.5t-40.5 -137.5q0 -74 33 -126.5t103 -52.5zM250 -12q-97 0 -149.5 69.5t-52.5 171.5q0 105 55.5 175.5t157.5 70.5q65 0 109 -28.5t57 -72.5v366h70v-740h-55l-8 82h-4 q-26 -40 -73 -67t-107 -27z"/>
<glyph glyph-name="e" horiz-adv-x="517" unicode="e" d="M281 419q-62 0 -100 -33t-52 -88h273q1 6 1 18q0 49 -35.5 76t-86.5 27zM284 475q88 0 136 -44.5t48 -125.5q0 -43 -9 -60h-337v-10q0 -82 42 -138t121 -56t162 58l12 -57q-86 -54 -182 -54q-107 0 -168.5 70t-61.5 172q0 104 63.5 174.5t173.5 70.5z"/>
<glyph glyph-name="f" horiz-adv-x="298" unicode="f" d="M102 0v413h-77v37l77 9q0 172 41 237q33 49 105 49q54 0 87 -17l-17 -59q-2 0 -39 12t-56 12q-30 0 -40.5 -36t-10.5 -131v-66h108v-47h-108v-413h-70z"/>
<glyph glyph-name="g" horiz-adv-x="508" unicode="g" d="M211 -5q-43 0 -75.5 -31t-32.5 -67q0 -38 40.5 -60.5t109.5 -22.5t112 23.5t43 66.5t-47 63.5t-150 27.5zM243 174q53 0 85 33.5t32 81.5q0 51 -33.5 92.5t-89.5 41.5q-54 0 -84.5 -38.5t-30.5 -86.5q0 -49 32.5 -86.5t88.5 -37.5zM141 138v4q-45 18 -67.5 58.5 t-22.5 91.5q0 79 51.5 131t136.5 52q58 0 96 -20q90 2 147 18l5 -4l-7 -55l-5 -5l-91 4l-1 -3q24 -20 37 -53.5t13 -67.5q0 -69 -50.5 -117t-139.5 -48q-8 0 -19 0.5t-15 0.5q-19 -6 -30.5 -18t-11.5 -21q0 -22 57 -28l97 -10q69 -7 113 -42t44 -92q0 -69 -52 -112 q-60 -50 -178 -50q-99 0 -157.5 38.5t-58.5 94.5q0 39 28.5 75t67.5 51v4q-41 19 -41 52t54 71z"/>
<glyph glyph-name="h" horiz-adv-x="545" unicode="h" d="M471 0h-70v304q0 112 -96 112q-52 0 -95.5 -32.5t-61.5 -88.5v-295h-70v740h70v-366q13 44 58 72.5t109 28.5q70 0 113 -38.5t43 -123.5v-313z"/>
<glyph glyph-name="i" horiz-adv-x="226" unicode="i" d="M63 628q0 21 14.5 36.5t35.5 15.5q20 0 36 -16t16 -36q0 -21 -15.5 -35.5t-36.5 -14.5t-35.5 14.5t-14.5 35.5zM148 460v-460h-70v460h70z"/>
<glyph glyph-name="j" horiz-adv-x="226" unicode="j" d="M63 628q0 21 14.5 36.5t35.5 15.5q20 0 36 -16t16 -36q0 -21 -15.5 -35.5t-36.5 -14.5t-35.5 14.5t-14.5 35.5zM148 460v-463q0 -109 -40 -182t-113 -73q-16 0 -22 3l-16 58q6 -3 22 -3q32 0 53.5 18t30.5 51t12 62t3 67v462h70z"/>
<glyph glyph-name="k" horiz-adv-x="474" unicode="k" d="M430 460l-164 -162l196 -298h-80l-165 250l-69 -69v-181h-70v740h70v-474l202 194h80z"/>
<glyph glyph-name="l" horiz-adv-x="238" unicode="l" d="M154 740v-740h-70v740h70z"/>
<glyph glyph-name="m" horiz-adv-x="859" unicode="m" d="M467 0h-70v304q0 58 -26.5 85t-71.5 27q-51 0 -92 -32t-59 -89v-295h-70v460h55l8 -86h4q13 44 56 72.5t106 28.5q60 0 100.5 -27t51.5 -74q51 101 170 101q69 0 113 -38.5t44 -123.5v-313h-70v304q0 58 -26.5 85t-71.5 27q-51 0 -92 -32t-59 -89v-295z"/>
<glyph glyph-name="n" horiz-adv-x="545" unicode="n" d="M471 0h-70v304q0 112 -96 112q-52 0 -95.5 -32.5t-61.5 -88.5v-295h-70v460h55l8 -86h4q13 44 59 72.5t111 28.5q70 0 113 -38.5t43 -123.5v-313z"/>
<glyph glyph-name="o" horiz-adv-x="561" unicode="o" d="M283 41q77 0 116.5 52.5t39.5 132.5q0 82 -41.5 137.5t-120.5 55.5q-77 0 -116 -52t-39 -132q0 -82 41 -138t120 -56zM280 475q115 0 174 -71t59 -177q0 -104 -58 -171.5t-171 -67.5q-115 0 -175.5 69.5t-60.5 174.5q0 104 59.5 173.5t172.5 69.5z"/>
<glyph glyph-name="p" horiz-adv-x="575" unicode="p" d="M307 416q-48 0 -89.5 -26t-69.5 -75v-147q17 -55 64 -88t101 -33q67 0 103.5 51.5t36.5 130.5t-37 133t-109 54zM325 475q97 0 149.5 -69.5t52.5 -171.5q0 -105 -55.5 -175.5t-157.5 -70.5q-65 0 -109 28.5t-57 72.5v-349h-70v720h55l8 -86h4q27 42 74 71.5t106 29.5z "/>
<glyph glyph-name="q" horiz-adv-x="575" unicode="q" d="M268 416q-72 0 -109 -54t-37 -133t36.5 -130.5t103.5 -51.5q54 0 101 33t64 88v147q-28 49 -69.5 75t-89.5 26zM247 475q116 0 183 -101h4l8 86h55v-720h-70v349q-13 -44 -57 -72.5t-109 -28.5q-102 0 -157.5 70.5t-55.5 174.5q0 102 52.5 172t146.5 70z"/>
<glyph glyph-name="r" horiz-adv-x="357" unicode="r" d="M347 452l-21 -66q-35 20 -63 20q-38 0 -70.5 -40t-44.5 -97v-269h-70v460h55l8 -101h4q16 51 49 83.5t83 32.5q19 0 40 -6.5t30 -16.5z"/>
<glyph glyph-name="s" horiz-adv-x="441" unicode="s" d="M213 419q-91 0 -91 -65q0 -56 76 -73l71 -16q130 -29 130 -129q0 -64 -49.5 -106t-132.5 -42q-98 0 -170 50l18 65q34 -31 77.5 -47t81.5 -16q47 0 74.5 23.5t27.5 52.5q0 66 -70 83l-96 24q-109 28 -109 118q0 61 45.5 97.5t121.5 36.5q98 0 160 -41l-19 -60 q-22 18 -62 31.5t-84 13.5z"/>
<glyph glyph-name="t" horiz-adv-x="313" unicode="t" d="M99 92v321h-77v37l79 10l15 139h53v-139h108v-47h-108v-319q0 -31 9 -41.5t30 -10.5q40 0 73 24l14 -53q-53 -24 -105 -24q-30 0 -49.5 8.5t-28 25.5t-11 32t-2.5 37z"/>
<glyph glyph-name="u" horiz-adv-x="544" unicode="u" d="M73 460h70v-304q0 -109 96 -109q52 0 96 31t61 87v295h70v-460h-55l-8 86h-4q-13 -43 -59 -70.5t-111 -27.5q-156 0 -156 159v313z"/>
<glyph glyph-name="v" horiz-adv-x="521" unicode="v" d="M514 460l-209 -460h-89l-209 460h76l179 -394l179 394h73z"/>
<glyph glyph-name="w" horiz-adv-x="822" unicode="w" d="M811 460l-179 -460h-95l-125 360l-132 -360h-95l-169 460h74l144 -392l144 392h74l135 -392l153 392h71z"/>
<glyph glyph-name="x" horiz-adv-x="517" unicode="x" d="M113 460l146 -175l145 175h85l-189 -223l199 -237h-85l-157 187l-154 -187h-85l198 235l-188 225h85z"/>
<glyph glyph-name="y" horiz-adv-x="519" unicode="y" d="M507 460l-211 -464q-14 -32 -19 -42.5t-22.5 -44t-29 -49.5t-32.5 -42.5t-40.5 -39.5t-45.5 -23.5t-53 -10.5q-12 0 -21 3l-13 66q12 -3 21 -3q43 0 72 20q64 45 115 185l-230 445h83l183 -383l164 383h79z"/>
<glyph glyph-name="z" horiz-adv-x="417" unicode="z" d="M42 0v60l243 341h-233v59h314v-58l-245 -343h255v-59h-334z"/>
<glyph glyph-name="braceleft" horiz-adv-x="285" unicode="{" d="M240 760l2 -21q-40 -4 -52.5 -29.5t-12.5 -72.5q0 -11 1 -67.5t1 -75.5q0 -145 -94 -167q94 -22 94 -167q0 -19 -1 -75.5t-1 -67.5q0 -47 12.5 -72.5t52.5 -29.5l-2 -21q-80 0 -107 35.5t-27 106.5q0 13 1 70.5t1 77.5t-0.5 32.5t-4.5 32.5t-11 31.5t-21.5 21t-34.5 10.5 v30q25 1 41 14t22 36.5t7.5 39t1.5 41.5q0 21 -1 77t-1 68q0 71 27 106.5t107 35.5z"/>
<glyph glyph-name="bar" horiz-adv-x="240" unicode="|" d="M151 768v-882h-62v882h62z"/>
<glyph glyph-name="braceright" horiz-adv-x="285" unicode="}" d="M43 739l2 21q80 0 107 -35.5t27 -106.5q0 -12 -1 -68t-1 -77q0 -26 1.5 -41.5t7.5 -39t22 -36.5t41 -14v-30q-20 -1 -34.5 -10.5t-21.5 -21t-11 -31.5t-4.5 -32.5t-0.5 -32.5t1 -77.5t1 -70.5q0 -71 -27 -106.5t-107 -35.5l-2 21q40 4 52.5 29.5t12.5 72.5q0 11 -1 67.5 t-1 75.5q0 145 94 167q-94 22 -94 167q0 19 1 75.5t1 67.5q0 47 -12.5 72.5t-52.5 29.5z"/>
<glyph glyph-name="asciitilde" horiz-adv-x="496" unicode="~" d="M422 288q0 -7 -8 -24t-30 -35t-50 -18q-12 0 -90 4.5t-101 4.5t-33.5 -5.5t-21.5 -19.5l-13 7q0 20 26.5 48.5t64.5 28.5q14 0 80.5 -4.5t98.5 -4.5q47 0 65 26z"/>
<glyph glyph-name="uni00A0" horiz-adv-x="245" unicode=" "/>
<glyph glyph-name="exclamdown" horiz-adv-x="240" unicode="¡" d="M96 314h47l26 -532h-97zM74 429q0 19 14 32.5t33 13.5q18 0 32.5 -14t14.5 -32q0 -19 -14.5 -33.5t-32.5 -14.5q-19 0 -33 14.5t-14 33.5z"/>
<glyph glyph-name="cent" horiz-adv-x="506" unicode="¢" d="M121 225q0 -68 36 -118t100 -61v342q-69 -9 -102.5 -54t-33.5 -109zM317 577v-134q87 -7 136 -38l-17 -59q-44 31 -119 41v-343q78 12 127 59l14 -65q-59 -38 -141 -48v-127h-60v126q-101 7 -155.5 72t-54.5 158q0 91 52.5 153.5t157.5 71.5v133h60z"/>
<glyph glyph-name="sterling" horiz-adv-x="567" unicode="£" d="M179 54l2 -3q38 -2 123.5 -22t131.5 -20q44 0 89 19l-19 -73q-39 -20 -81 -20q-48 0 -140.5 33t-144.5 33q-54 0 -92 -32l-14 47q141 62 141 234v15h-98v52h94q-2 20 -7.5 57.5t-8.5 64.5t-3 47q0 62 30 104t71 58.5t89 16.5q92 0 156 -49l-18 -66q-20 21 -58.5 35 t-77.5 14q-102 0 -102 -111q0 -24 7 -82.5t9 -88.5h139v-52h-137q-4 -120 -81 -211z"/>
<glyph glyph-name="currency" horiz-adv-x="581" unicode="¤" d="M290 378q-61 0 -104.5 -43t-43.5 -106q0 -62 43.5 -105.5t105.5 -43.5q61 0 104 43.5t43 105.5t-43 105.5t-105 43.5zM58 27l78 80q-44 54 -44 123q0 65 45 121l-82 80l30 30l80 -79q60 44 124 44q68 0 123 -44l81 78l30 -29l-79 -80q44 -58 44 -123q0 -64 -43 -121 l80 -80l-31 -30l-81 79q-59 -45 -122 -45q-60 0 -124 45l-80 -79z"/>
<glyph glyph-name="yen" horiz-adv-x="649" unicode="¥" d="M116 255h172v12l-27 41h-145v52h111l-196 300h89l209 -317l202 317h87l-197 -300h114v-52h-148l-24 -37v-16h172v-52h-172v-203h-75v203h-172v52z"/>
<glyph glyph-name="brokenbar" horiz-adv-x="244" unicode="¦" d="M153 380h-62v388h62v-388zM91 274h62v-388h-62v388z"/>
<glyph glyph-name="section" horiz-adv-x="440" unicode="§" d="M332 250q0 30 -22.5 57.5t-51.5 47.5t-66 49t-58 56q-26 -25 -26 -64q0 -38 34 -70.5t86.5 -70t77.5 -70.5q26 25 26 65zM276 72q0 32 -23.5 61t-57.5 53t-68 49.5t-57.5 60.5t-23.5 76q0 37 17.5 72t46.5 57q-12 27 -12 62q0 69 45.5 107.5t101.5 38.5q63 0 115 -38 l-25 -67q-37 42 -94 42q-32 0 -54.5 -19t-22.5 -53q0 -32 23.5 -61t57.5 -53t68 -49.5t57.5 -60.5t23.5 -76q0 -37 -17.5 -72.5t-46.5 -56.5q12 -33 12 -62q0 -69 -45.5 -107.5t-101.5 -38.5q-63 0 -115 38l25 67q37 -42 94 -42q32 0 54.5 19t22.5 53z"/>
<glyph glyph-name="dieresis" horiz-adv-x="220" unicode="¨" d="M137 631q0 18 12 31.5t29 13.5t29.5 -13.5t12.5 -31.5t-12.5 -31t-29.5 -13t-29 12.5t-12 31.5zM0 631q0 18 12 31.5t29 13.5t29.5 -13.5t12.5 -31.5t-12.5 -31t-29.5 -13t-29 12.5t-12 31.5z"/>
<glyph glyph-name="copyright" horiz-adv-x="725" unicode="©" d="M480 493l-12 -51q-16 12 -46.5 21t-59.5 9q-53 0 -77.5 -31t-24.5 -81q0 -54 27.5 -88.5t78.5 -34.5q64 0 108 42l9 -56q-54 -35 -126 -35q-77 0 -117.5 47.5t-40.5 120.5t40 119t123 46q75 0 118 -28zM362 613q-108 0 -182 -75.5t-74 -183.5q0 -109 73.5 -185t178.5 -76 q112 0 186.5 75t74.5 186q0 108 -74.5 183.5t-182.5 75.5zM362 654q126 0 215 -88t89 -212q0 -127 -89.5 -214.5t-219.5 -87.5q-122 0 -210 89t-88 213t88.5 212t214.5 88z"/>
<glyph glyph-name="ordfeminine" horiz-adv-x="373" unicode="ª" d="M152 402q25 0 52.5 17t44.5 45v48h-5q-29 0 -49.5 -2t-42 -8t-33 -20.5t-11.5 -36.5q0 -43 44 -43zM298 369h-40l-5 49h-4q-15 -23 -46 -40t-64 -17q-38 0 -58.5 22.5t-20.5 58.5q0 32 16.5 54.5t44 32.5t51.5 13.5t50 3.5h27v7q0 67 -77 67q-44 0 -82 -24l-10 36 q44 26 96 26t87 -24.5t35 -75.5v-189z"/>
<glyph glyph-name="guillemotleft" horiz-adv-x="484" unicode="«" d="M283 243v-5l144 -177h-80l-133 177v5l134 177h79zM121 243v-5l144 -177h-80l-133 177v5l134 177h79z"/>
<glyph glyph-name="logicalnot" horiz-adv-x="632" unicode="¬" d="M76 341h480v-224h-53v172h-427v52z"/>
<glyph glyph-name="uni00AD" horiz-adv-x="487" unicode="­" d="M76 265h336l-2 -52h-336z"/>
<glyph glyph-name="registered" horiz-adv-x="725" unicode="®" d="M349 494q-7 0 -20 -0.5t-19 -0.5v-111q12 -1 40 -1q33 0 52 16t19 46q0 51 -72 51zM262 201v329q46 2 85 2q60 0 92 -20.5t32 -72.5q0 -31 -21.5 -55.5t-57.5 -34.5l101 -148h-55l-99 145h-29v-145h-48zM362 613q-108 0 -182 -75.5t-74 -183.5q0 -109 73.5 -185 t178.5 -76q112 0 186.5 75t74.5 186q0 108 -74.5 183.5t-182.5 75.5zM362 654q126 0 215 -88t89 -212q0 -127 -89.5 -214.5t-219.5 -87.5q-122 0 -210 89t-88 213t88.5 212t214.5 88z"/>
<glyph glyph-name="degree" horiz-adv-x="358" unicode="°" d="M178 467q36 0 54.5 19.5t18.5 53.5t-19 55.5t-55 21.5q-37 0 -55 -20.5t-18 -52.5q0 -34 19.5 -55.5t54.5 -21.5zM178 658q58 0 90.5 -33.5t32.5 -84.5q0 -47 -31.5 -79t-91.5 -32t-90.5 33t-30.5 81q0 49 32.5 82t88.5 33z"/>
<glyph glyph-name="plusminus" horiz-adv-x="483" unicode="±" d="M82 123h319v-53h-319v53zM267 455v-104h134v-53h-134v-115h-52v115h-133v53h133v104h52z"/>
<glyph glyph-name="twosuperior" horiz-adv-x="375" unicode="²" d="M91 572l-11 44q54 49 108 49q51 0 80 -26.5t29 -70.5q0 -26 -9 -49.5t-29 -47.5t-37 -40.5t-48.5 -45t-47.5 -44.5h175v-42h-236v42q21 27 71 71.5t79.5 81.5t29.5 73q0 22 -13 40t-45 18q-25 0 -51.5 -15t-44.5 -38z"/>
<glyph glyph-name="threesuperior" horiz-adv-x="357" unicode="³" d="M91 596l-11 39q48 30 87 30q54 0 83 -24.5t29 -69.5q0 -42 -57 -70q76 -23 76 -90q0 -50 -35.5 -83.5t-105.5 -33.5q-53 0 -101 38l12 40q17 -14 26.5 -20.5t25.5 -12t35 -5.5q93 0 93 82q0 32 -21 48.5t-73 16.5h-12v34h15q72 0 72 61q0 24 -12 36.5t-46 12.5 q-44 0 -80 -29z"/>
<glyph glyph-name="acute" horiz-adv-x="219" unicode="´" d="M13 549l-7 3l-6 20l3 7l180 101q17 -1 26.5 -10.5t9.5 -24.5q0 -10 -4 -19z"/>
<glyph glyph-name="mu" horiz-adv-x="577" unicode="µ" d="M116 460h70v-304q0 -109 96 -109q52 0 96 31t61 87v295h70v-460h-55l-8 86h-4q-13 -43 -59 -70.5t-111 -27.5q-72 0 -111 35l-3 -13q-17 -74 -54 -150l-64 29q40 76 58 133t18 125v313z"/>
<glyph glyph-name="paragraph" horiz-adv-x="533" unicode="¶" d="M285 -86v334h-21q-112 0 -170.5 58t-58.5 147q0 102 65 157t175 55q17 0 159 -5v-746h-45v685h-54v-685h-50z"/>
<glyph glyph-name="periodcentered" horiz-adv-x="242" unicode="·" d="M74 243q0 19 14 33.5t33 14.5q18 0 32.5 -14.5t14.5 -33.5q0 -18 -14.5 -32t-32.5 -14q-19 0 -33 13.5t-14 32.5z"/>
<glyph glyph-name="cedilla" horiz-adv-x="202" unicode="¸" d="M1 -184l-1 6l13 23h7q32 -12 69 -12q54 0 54 40q0 46 -52 46q-23 0 -48 -7l-9 11l51 77h34l-30 -51q17 4 34 4q34 0 56.5 -20.5t22.5 -51.5q0 -34 -32 -59t-78 -25t-91 19z"/>
<glyph glyph-name="onesuperior" horiz-adv-x="248" unicode="¹" d="M167 665v-366h-54v286l-57 -28l-13 42z"/>
<glyph glyph-name="ordmasculine" horiz-adv-x="390" unicode="º" d="M195 410q87 0 87 100q0 46 -23 75t-67 29q-85 0 -85 -100q0 -46 22.5 -75t65.5 -29zM194 658q65 0 102.5 -43t37.5 -105q0 -59 -36.5 -100t-102.5 -41q-67 0 -103 42t-36 102q0 61 37.5 103t100.5 42z"/>
<glyph glyph-name="guillemotright" horiz-adv-x="484" unicode="»" d="M201 238v5l-144 177h79l134 -177v-5l-133 -177h-80zM363 238v5l-144 177h79l134 -177v-5l-133 -177h-80z"/>
<glyph glyph-name="onequarter" horiz-adv-x="711" unicode="¼" d="M159 665v-366h-54v286l-57 -28l-13 42zM607 691l-463 -715h-65l463 715h65zM488 152h99v154zM668 152v-42h-36v-111h-45v111h-150v42l147 213h48v-213h36z"/>
<glyph glyph-name="onehalf" horiz-adv-x="715" unicode="½" d="M460 271l-11 44q54 49 108 49q51 0 80 -26.5t29 -70.5q0 -26 -9 -49.5t-29 -47.5t-37 -40.5t-48.5 -45t-47.5 -44.5h175v-42h-236v42q21 27 71 71.5t79.5 81.5t29.5 73q0 22 -13 40t-45 18q-25 0 -51.5 -15t-44.5 -38zM589 691l-463 -715h-65l463 715h65zM161 665v-366 h-54v286l-57 -28l-13 42z"/>
<glyph glyph-name="threequarters" horiz-adv-x="750" unicode="¾" d="M660 691l-463 -715h-65l463 715h65zM527 152h99v154zM707 152v-42h-36v-111h-45v111h-150v42l147 213h48v-213h36zM72 595l-11 39q48 30 87 30q54 0 83 -24.5t29 -69.5q0 -42 -57 -70q76 -23 76 -90q0 -50 -35.5 -83.5t-105.5 -33.5q-54 0 -101 38l12 40 q17 -14 26.5 -20.5t25.5 -12t35 -5.5q93 0 93 82q0 32 -21 48.5t-73 16.5h-12v34h15q72 0 72 61q0 24 -12 36.5t-46 12.5q-44 0 -80 -29z"/>
<glyph glyph-name="questiondown" horiz-adv-x="402" unicode="¿" d="M347 -107l18 -66q-27 -21 -67.5 -35t-77.5 -14q-80 0 -127 44.5t-47 117.5q0 33 15 66.5t36.5 64.5t42.5 65t36.5 80t15.5 97h64q0 -56 -14 -103.5t-34.5 -80.5t-41 -62.5t-34.5 -62t-14 -65.5q0 -42 26.5 -69t76.5 -27q32 0 68.5 14.5t57.5 35.5zM268 428 q0 -19 -13.5 -33t-32.5 -14t-33.5 14t-14.5 33t14.5 33t33.5 14t32.5 -14t13.5 -33z"/>
<glyph glyph-name="Agrave" d="M427 721l-8 -3l-201 77q-4 9 -4 19q0 32 35 34l181 -100l2 -7zM313 576l-112 -284h236zM360 660l290 -660h-85l-97 222h-295l-88 -222h-80l264 660h91z" unicode="À"/>
<glyph glyph-name="Aacute" d="M227 718l-7 3l-6 20l3 7l180 100q35 -2 35 -34q0 -12 -3 -19zM313 576l-112 -284h236zM360 660l290 -660h-85l-97 222h-295l-88 -222h-80l264 660h91z" unicode="Á"/>
<glyph glyph-name="Acircumflex" d="M322 842h8l110 -99l3 -7l-6 -20l-7 -3l-104 62l-104 -62l-7 3l-6 20l3 7zM313 576l-112 -284h236zM360 660l290 -660h-85l-97 222h-295l-88 -222h-80l264 660h91z" unicode="Â"/>
<glyph glyph-name="Atilde" d="M479 832q-7 -32 -28.5 -54.5t-59.5 -22.5q-28 0 -81.5 7t-73.5 7q-23 0 -33.5 -5.5t-21.5 -19.5l-13 8q25 76 91 76q36 0 78 -7t65 -7q46 0 65 26zM313 576l-112 -284h236zM360 660l290 -660h-85l-97 222h-295l-88 -222h-80l264 660h91z" unicode="Ã"/>
<glyph glyph-name="Adieresis" d="M361 794q0 18 12 31.5t29 13.5q16 0 28.5 -13.5t12.5 -31.5t-12.5 -31t-28.5 -13q-17 0 -29 12.5t-12 31.5zM204 794q0 18 12 31.5t29 13.5t29.5 -13.5t12.5 -31.5t-12.5 -31t-29.5 -13t-29 12.5t-12 31.5zM313 576l-112 -284h236zM360 660l290 -660h-85l-97 222h-295 l-88 -222h-80l264 660h91z" unicode="Ä"/>
<glyph glyph-name="Aring" d="M315 654q19 0 32 15t13 34q0 20 -13.5 34.5t-33.5 14.5q-21 0 -34 -13t-13 -33q0 -21 14.5 -36.5t34.5 -15.5zM313 576l-112 -284h236zM314 782q38 0 62 -23.5t24 -55.5q0 -38 -34 -58l284 -645h-85l-97 222h-295l-88 -222h-80l258 645q-36 20 -36 60q0 32 24.5 54.5 t62.5 22.5z" unicode="Å"/>
<glyph glyph-name="AE" horiz-adv-x="759" unicode="Æ" d="M229 292h158v296zM719 70v-70h-332v222h-195l-117 -222h-82l352 660h354v-70h-237v-205h170v-70h-170v-245h257z"/>
<glyph glyph-name="Ccedilla" d="M275 -184l-1 6l13 23h7q32 -12 69 -12q53 0 53 40q0 46 -51 46q-23 0 -49 -7l-8 11l43 66q-144 8 -219 102t-75 232q0 149 86.5 245.5t243.5 96.5q115 0 201 -43l-21 -72q-73 49 -186 49q-241 0 -241 -268q0 -137 60.5 -207t178.5 -70q125 0 201 62l20 -67 q-96 -58 -213 -61l-24 -39q16 4 33 4q35 0 57 -20.5t22 -51.5q0 -34 -31.5 -59t-77.5 -25q-48 0 -91 19z" unicode="Ç"/>
<glyph glyph-name="Egrave" horiz-adv-x="522" unicode="È" d="M381 721l-8 -3l-201 77q-4 9 -4 19q0 32 35 34l181 -100l3 -7zM481 70v-70h-382v660h362v-70h-287v-205h220v-70h-220v-245h307z"/>
<glyph glyph-name="Eacute" horiz-adv-x="522" unicode="É" d="M191 718l-7 3l-6 20l3 7l181 100q16 -1 25.5 -10.5t9.5 -23.5q0 -10 -4 -19zM481 70v-70h-382v660h362v-70h-287v-205h220v-70h-220v-245h307z"/>
<glyph glyph-name="Ecircumflex" horiz-adv-x="522" unicode="Ê" d="M283 842h8l110 -99l3 -7l-6 -20l-7 -3l-104 62l-104 -62l-7 3l-6 20l3 7zM481 70v-70h-382v660h362v-70h-287v-205h220v-70h-220v-245h307z"/>
<glyph glyph-name="Edieresis" horiz-adv-x="522" unicode="Ë" d="M158 794q0 18 12 31.5t29 13.5t29.5 -13.5t12.5 -31.5t-12.5 -31t-29.5 -13t-29 12.5t-12 31.5zM315 794q0 18 12 31.5t29 13.5t29.5 -13.5t12.5 -31.5t-12.5 -31t-29.5 -13t-29 12.5t-12 31.5zM481 70v-70h-382v660h362v-70h-287v-205h220v-70h-220v-245h307z"/>
<glyph glyph-name="Igrave" horiz-adv-x="273" unicode="Ì" d="M174 660v-660h-75v660h75zM228 721l-7 -3l-202 77q-4 9 -4 19q0 14 9.5 23.5t25.5 10.5l181 -100l3 -7z"/>
<glyph glyph-name="Iacute" horiz-adv-x="273" unicode="Í" d="M174 660v-660h-75v660h75zM49 718l-8 3l-6 20l3 7l181 100q35 -2 35 -34q0 -10 -4 -19z"/>
<glyph glyph-name="Icircumflex" horiz-adv-x="273" unicode="Î" d="M174 660v-660h-75v660h75zM131 842h7l111 -99l3 -7l-6 -20l-8 -3l-103 62l-104 -62l-8 3l-5 20l3 7z"/>
<glyph glyph-name="Idieresis" horiz-adv-x="273" unicode="Ï" d="M174 660v-660h-75v660h75zM176 794q0 18 12 31.5t29 13.5t29.5 -13.5t12.5 -31.5t-12.5 -31t-29.5 -13t-29 12.5t-12 31.5zM19 794q0 18 12 31.5t29 13.5t29.5 -13.5t12.5 -31.5t-12.5 -31t-29.5 -13t-29 12.5t-12 31.5z"/>
<glyph glyph-name="Eth" horiz-adv-x="706" unicode="Ð" d="M176 370h175v-44h-175v-266q63 -6 151 -6q118 0 178.5 70t60.5 207q0 268 -241 268q-86 0 -149 -3v-226zM101 326h-87v44h87v290h5q157 5 213 5q143 0 229 -75q101 -91 101 -267q0 -93 -33.5 -167t-107 -121t-178.5 -47q-109 0 -229 12v326z"/>
<glyph glyph-name="Ntilde" horiz-adv-x="704" unicode="Ñ" d="M494 832q-7 -32 -28.5 -54.5t-59.5 -22.5q-28 0 -81.5 7t-73.5 7q-23 0 -33.5 -5.5t-21.5 -19.5l-13 8q25 76 91 76q36 0 78 -7t65 -7q45 0 65 26zM184 660l346 -543v543h75v-660h-85l-346 542v-542h-75v660h85z"/>
<glyph glyph-name="Ograve" horiz-adv-x="756" unicode="Ò" d="M373 54q124 0 184.5 75t60.5 197q0 127 -60.5 200t-182.5 73q-123 0 -179.5 -71t-56.5 -196q0 -137 60 -207.5t174 -70.5zM378 665q150 0 236 -97t86 -239q0 -67 -21 -127.5t-61 -108.5t-104 -76.5t-143 -28.5q-102 0 -175 47t-106.5 121t-33.5 166q0 148 86 245.5 t236 97.5zM453 721l-8 -3l-201 77q-4 9 -4 19q0 32 35 34l180 -100l3 -7z"/>
<glyph glyph-name="Oacute" horiz-adv-x="756" unicode="Ó" d="M373 54q124 0 184.5 75t60.5 197q0 127 -60.5 200t-182.5 73q-123 0 -179.5 -71t-56.5 -196q0 -137 60 -207.5t174 -70.5zM378 665q150 0 236 -97t86 -239q0 -67 -21 -127.5t-61 -108.5t-104 -76.5t-143 -28.5q-102 0 -175 47t-106.5 121t-33.5 166q0 148 86 245.5 t236 97.5zM320 718l-8 3l-5 20l3 7l180 100q35 -2 35 -34q0 -8 -3 -19z"/>
<glyph glyph-name="Ocircumflex" horiz-adv-x="756" unicode="Ô" d="M373 54q124 0 184.5 75t60.5 197q0 127 -60.5 200t-182.5 73q-123 0 -179.5 -71t-56.5 -196q0 -137 60 -207.5t174 -70.5zM378 665q150 0 236 -97t86 -239q0 -67 -21 -127.5t-61 -108.5t-104 -76.5t-143 -28.5q-102 0 -175 47t-106.5 121t-33.5 166q0 148 86 245.5 t236 97.5zM384 842h8l110 -99l3 -7l-6 -20l-7 -3l-104 62l-104 -62l-7 3l-6 20l3 7z"/>
<glyph glyph-name="Otilde" horiz-adv-x="756" unicode="Õ" d="M373 54q124 0 184.5 75t60.5 197q0 127 -60.5 200t-182.5 73q-123 0 -179.5 -71t-56.5 -196q0 -137 60 -207.5t174 -70.5zM378 665q150 0 236 -97t86 -239q0 -67 -21 -127.5t-61 -108.5t-104 -76.5t-143 -28.5q-102 0 -175 47t-106.5 121t-33.5 166q0 148 86 245.5 t236 97.5zM535 832q-7 -32 -28.5 -54.5t-59.5 -22.5q-28 0 -81.5 7t-73.5 7q-23 0 -33.5 -5.5t-21.5 -19.5l-13 8q25 76 91 76q36 0 78 -7t65 -7q46 0 65 26z"/>
<glyph glyph-name="Odieresis" horiz-adv-x="756" unicode="Ö" d="M373 54q124 0 184.5 75t60.5 197q0 127 -60.5 200t-182.5 73q-123 0 -179.5 -71t-56.5 -196q0 -137 60 -207.5t174 -70.5zM378 665q150 0 236 -97t86 -239q0 -67 -21 -127.5t-61 -108.5t-104 -76.5t-143 -28.5q-102 0 -175 47t-106.5 121t-33.5 166q0 148 86 245.5 t236 97.5zM416 794q0 18 12 31.5t29 13.5t29.5 -13.5t12.5 -31.5t-12.5 -31t-29.5 -13t-29 12.5t-12 31.5zM259 794q0 18 12 31.5t29 13.5t29.5 -13.5t12.5 -31.5t-12.5 -31t-29.5 -13t-29 12.5t-12 31.5z"/>
<glyph glyph-name="multiply" horiz-adv-x="458" unicode="×" d="M350 80l-122 122l-120 -121l-37 37l120 121l-120 120l37 37l120 -120l122 121l37 -37l-122 -121l122 -122z"/>
<glyph glyph-name="Oslash" horiz-adv-x="756" unicode="Ø" d="M140 332q0 -112 40 -179l342 406q-57 40 -146 40q-123 0 -179.5 -71t-56.5 -196zM374 54q124 0 184.5 75t60.5 197q0 116 -51 188l-346 -412q57 -48 152 -48zM58 8l72 85q-73 91 -73 229q0 148 86 245.5t236 97.5q108 0 186 -54l65 76l51 -39l-67 -80q87 -95 87 -239 q0 -67 -21 -127.5t-61 -108.5t-104 -76.5t-143 -28.5q-117 0 -196 60l-70 -83z"/>
<glyph glyph-name="Ugrave" horiz-adv-x="688" unicode="Ù" d="M167 660v-404q0 -202 179 -202q180 0 180 202v404h70v-438q0 -103 -64 -168t-186 -65q-133 0 -193.5 63.5t-60.5 169.5v438h75zM434 721l-8 -3l-201 77q-4 9 -4 19q0 32 35 34l181 -100l2 -7z"/>
<glyph glyph-name="Uacute" horiz-adv-x="688" unicode="Ú" d="M167 660v-404q0 -202 179 -202q180 0 180 202v404h70v-438q0 -103 -64 -168t-186 -65q-133 0 -193.5 63.5t-60.5 169.5v438h75zM263 718l-8 3l-6 20l3 7l181 100q35 -2 35 -34q0 -10 -4 -19z"/>
<glyph glyph-name="Ucircumflex" horiz-adv-x="688" unicode="Û" d="M167 660v-404q0 -202 179 -202q180 0 180 202v404h70v-438q0 -103 -64 -168t-186 -65q-133 0 -193.5 63.5t-60.5 169.5v438h75zM337 842h7l111 -99l2 -7l-5 -20l-8 -3l-103 62l-104 -62l-8 3l-5 20l2 7z"/>
<glyph glyph-name="Udieresis" horiz-adv-x="688" unicode="Ü" d="M167 660v-404q0 -202 179 -202q180 0 180 202v404h70v-438q0 -103 -64 -168t-186 -65q-133 0 -193.5 63.5t-60.5 169.5v438h75zM393 794q0 18 12 31.5t29 13.5t29.5 -13.5t12.5 -31.5t-12.5 -31t-29.5 -13t-29 12.5t-12 31.5zM236 794q0 18 12 31.5t29 13.5t29.5 -13.5 t12.5 -31.5t-12.5 -31t-29.5 -13t-29 12.5t-12 31.5z"/>
<glyph glyph-name="Yacute" horiz-adv-x="566" unicode="Ý" d="M246 267l-257 393h89l209 -317l202 317h87l-255 -389v-271h-75v267zM228 718l-8 3l-5 20l3 7l180 100q35 -2 35 -34q0 -8 -3 -19z"/>
<glyph glyph-name="Thorn" horiz-adv-x="519" unicode="Þ" d="M244 469q-25 0 -75 -2v-259q33 -4 74 -4q77 0 114 33.5t37 103.5q0 63 -34 95.5t-116 32.5zM169 660v-127q52 2 73 2q109 0 172 -52t63 -148q0 -88 -56 -142.5t-174 -54.5q-39 0 -78 3v-141h-70v660h70z"/>
<glyph glyph-name="germandbls" horiz-adv-x="544" unicode="ß" d="M148 486v-486h-70v486q0 116 47.5 183t137.5 67q71 0 116.5 -40t45.5 -95q0 -38 -25.5 -78t-51 -74.5t-25.5 -58.5q0 -22 19.5 -42t47 -38t55 -39t47 -55.5t19.5 -77.5q0 -74 -48.5 -112t-102.5 -38q-59 0 -107 44l20 71q15 -29 40.5 -46t53.5 -17q31 0 50.5 22.5 t19.5 64.5q0 33 -13.5 59t-33.5 41.5t-43 32t-43 31t-33.5 38.5t-13.5 54q0 31 14.5 62t32 51.5t32 47.5t14.5 52q0 34 -23.5 56.5t-67.5 22.5q-35 0 -58 -15t-34 -44t-15 -59t-4 -71z"/>
<glyph glyph-name="agrave" horiz-adv-x="498" unicode="à" d="M193 47q43 0 89 27t73 74v93h-9q-38 0 -66.5 -2t-61.5 -8.5t-54 -18.5t-35.5 -33.5t-14.5 -51.5q0 -38 21 -59t58 -21zM425 0h-55l-8 82h-4q-25 -39 -78 -66.5t-108 -27.5q-63 0 -97.5 37.5t-34.5 97.5q0 44 20 76.5t48 49.5t67.5 27.5t70 13t64.5 2.5h45v12q0 64 -41 92 q-31 20 -88 20q-69 0 -136 -40l-16 60q67 39 160 39q82 0 128 -29q63 -40 63 -133v-313zM318 552l-8 -3l-202 77q-3 10 -3 19q0 33 35 35l180 -101l3 -7z"/>
<glyph glyph-name="aacute" horiz-adv-x="498" unicode="á" d="M193 47q43 0 89 27t73 74v93h-9q-38 0 -66.5 -2t-61.5 -8.5t-54 -18.5t-35.5 -33.5t-14.5 -51.5q0 -38 21 -59t58 -21zM425 0h-55l-8 82h-4q-25 -39 -78 -66.5t-108 -27.5q-63 0 -97.5 37.5t-34.5 97.5q0 44 20 76.5t48 49.5t67.5 27.5t70 13t64.5 2.5h45v12q0 64 -41 92 q-31 20 -88 20q-69 0 -136 -40l-16 60q67 39 160 39q82 0 128 -29q63 -40 63 -133v-313zM192 549l-7 3l-6 20l3 7l180 101q17 -1 26.5 -10.5t9.5 -24.5q0 -10 -4 -19z"/>
<glyph glyph-name="acircumflex" horiz-adv-x="498" unicode="â" d="M193 47q43 0 89 27t73 74v93h-9q-38 0 -66.5 -2t-61.5 -8.5t-54 -18.5t-35.5 -33.5t-14.5 -51.5q0 -38 21 -59t58 -21zM425 0h-55l-8 82h-4q-25 -39 -78 -66.5t-108 -27.5q-63 0 -97.5 37.5t-34.5 97.5q0 44 20 76.5t48 49.5t67.5 27.5t70 13t64.5 2.5h45v12q0 64 -41 92 q-31 20 -88 20q-69 0 -136 -40l-16 60q67 39 160 39q82 0 128 -29q63 -40 63 -133v-313zM236 673h8l110 -99l3 -7l-6 -19l-7 -3l-104 61l-103 -61l-8 3l-6 19l3 7z"/>
<glyph glyph-name="atilde" horiz-adv-x="498" unicode="ã" d="M193 47q43 0 89 27t73 74v93h-9q-38 0 -66.5 -2t-61.5 -8.5t-54 -18.5t-35.5 -33.5t-14.5 -51.5q0 -38 21 -59t58 -21zM425 0h-55l-8 82h-4q-25 -39 -78 -66.5t-108 -27.5q-63 0 -97.5 37.5t-34.5 97.5q0 44 20 76.5t48 49.5t67.5 27.5t70 13t64.5 2.5h45v12q0 64 -41 92 q-31 20 -88 20q-69 0 -136 -40l-16 60q67 39 160 39q82 0 128 -29q63 -40 63 -133v-313zM406 668q0 -7 -8 -23.5t-30 -35t-50 -18.5q-12 0 -75 4.5t-86 4.5t-33.5 -5.5t-21.5 -19.5l-13 8q0 20 26.5 48t64.5 28q14 0 65.5 -4.5t83.5 -4.5q46 0 65 26z"/>
<glyph glyph-name="adieresis" horiz-adv-x="498" unicode="ä" d="M193 47q43 0 89 27t73 74v93h-9q-38 0 -66.5 -2t-61.5 -8.5t-54 -18.5t-35.5 -33.5t-14.5 -51.5q0 -38 21 -59t58 -21zM425 0h-55l-8 82h-4q-25 -39 -78 -66.5t-108 -27.5q-63 0 -97.5 37.5t-34.5 97.5q0 44 20 76.5t48 49.5t67.5 27.5t70 13t64.5 2.5h45v12q0 64 -41 92 q-31 20 -88 20q-69 0 -136 -40l-16 60q67 39 160 39q82 0 128 -29q63 -40 63 -133v-313zM287 626q0 18 12 31.5t28 13.5q17 0 29.5 -13.5t12.5 -31.5t-12.5 -31t-29.5 -13t-28.5 12.5t-11.5 31.5zM130 626q0 18 12 31.5t29 13.5q16 0 28.5 -13.5t12.5 -31.5t-12.5 -31 t-28.5 -13q-17 0 -29 12.5t-12 31.5z"/>
<glyph glyph-name="aring" horiz-adv-x="498" unicode="å" d="M193 47q43 0 89 27t73 74v93h-9q-38 0 -66.5 -2t-61.5 -8.5t-54 -18.5t-35.5 -33.5t-14.5 -51.5q0 -38 21 -59t58 -21zM425 0h-55l-8 82h-4q-25 -39 -78 -66.5t-108 -27.5q-63 0 -97.5 37.5t-34.5 97.5q0 44 20 76.5t48 49.5t67.5 27.5t70 13t64.5 2.5h45v12q0 64 -41 92 q-31 20 -88 20q-69 0 -136 -40l-16 60q67 39 160 39q82 0 128 -29q63 -40 63 -133v-313zM255 562q19 0 31.5 14t12.5 32q0 19 -13 35t-33 16t-32 -14.5t-12 -33.5t13 -34t33 -15zM254 683q37 0 60 -22.5t23 -52.5q0 -28 -22 -49t-60 -21q-39 0 -61 22t-22 50q0 29 22.5 51 t59.5 22z"/>
<glyph glyph-name="ae" horiz-adv-x="819" unicode="æ" d="M584 419q-62 0 -100 -33t-52 -88h273q1 6 1 18q0 49 -35.5 76t-86.5 27zM193 47q43 0 89 27t73 74v93h-9q-38 0 -66.5 -2t-61.5 -8.5t-54 -18.5t-35.5 -33.5t-14.5 -51.5q0 -38 21 -59t58 -21zM403 396h4q30 35 77.5 57t102.5 22q88 0 136 -44.5t48 -125.5q0 -43 -9 -60 h-337v-18q2 -79 44 -132.5t119 -53.5q84 0 161 54l13 -53q-86 -54 -182 -54q-129 0 -192 100h-4q-73 -100 -212 -100q-63 0 -97.5 37.5t-34.5 97.5q0 44 20 76.5t48 49.5t67.5 27.5t70 13t64.5 2.5h45v12q0 64 -41 92q-31 20 -88 20q-69 0 -136 -40l-16 60q67 39 160 39 q82 0 128 -29q30 -21 41 -50z"/>
<glyph glyph-name="ccedilla" horiz-adv-x="500" unicode="ç" d="M455 435l-17 -59q-23 18 -67 31t-85 13q-82 0 -122.5 -51.5t-40.5 -128.5q0 -83 45 -140t125 -57q40 0 82 15.5t69 41.5l16 -62q-70 -46 -169 -50l-24 -39q16 4 33 4q35 0 57 -20.5t22 -51.5q0 -34 -31.5 -59t-77.5 -25q-48 0 -91 19l-1 6l13 23h7q32 -12 69 -12 q53 0 53 40q0 46 -51 46q-23 0 -49 -7l-8 11l43 66q-99 8 -152.5 77t-53.5 168q0 104 60 172.5t178 68.5q106 0 168 -40z"/>
<glyph glyph-name="egrave" horiz-adv-x="516" unicode="è" d="M351 552l-8 -3l-202 77q-3 10 -3 19q0 33 35 35l180 -101l3 -7zM281 419q-62 0 -100 -33t-52 -88h273q1 6 1 18q0 49 -35.5 76t-86.5 27zM284 475q88 0 136 -44.5t48 -125.5q0 -43 -9 -60h-337v-10q0 -82 42 -138t121 -56q84 0 161 54l13 -53q-86 -54 -182 -54 q-107 0 -168.5 70t-61.5 172q0 104 63.5 174.5t173.5 70.5z"/>
<glyph glyph-name="eacute" horiz-adv-x="516" unicode="é" d="M206 549l-7 3l-6 20l3 7l180 101q35 -2 35 -35q0 -12 -3 -19zM281 419q-62 0 -100 -33t-52 -88h273q1 6 1 18q0 49 -35.5 76t-86.5 27zM284 475q88 0 136 -44.5t48 -125.5q0 -43 -9 -60h-337v-10q0 -82 42 -138t121 -56q84 0 161 54l13 -53q-86 -54 -182 -54 q-107 0 -168.5 70t-61.5 172q0 104 63.5 174.5t173.5 70.5z"/>
<glyph glyph-name="ecircumflex" horiz-adv-x="516" unicode="ê" d="M268 673h7l111 -99l2 -7l-5 -19l-8 -3l-103 61l-104 -61l-8 3l-5 19l2 7zM281 419q-62 0 -100 -33t-52 -88h273q1 6 1 18q0 49 -35.5 76t-86.5 27zM284 475q88 0 136 -44.5t48 -125.5q0 -43 -9 -60h-337v-10q0 -82 42 -138t121 -56q84 0 161 54l13 -53q-86 -54 -182 -54 q-107 0 -168.5 70t-61.5 172q0 104 63.5 174.5t173.5 70.5z"/>
<glyph glyph-name="edieresis" horiz-adv-x="516" unicode="ë" d="M149 626q0 18 12 31.5t29 13.5t29.5 -13.5t12.5 -31.5t-12.5 -31t-29.5 -13t-29 12.5t-12 31.5zM306 626q0 18 12 31.5t29 13.5t29.5 -13.5t12.5 -31.5t-12.5 -31t-29.5 -13t-29 12.5t-12 31.5zM281 419q-62 0 -100 -33t-52 -88h273q1 6 1 18q0 49 -35.5 76t-86.5 27z M284 475q88 0 136 -44.5t48 -125.5q0 -43 -9 -60h-337v-10q0 -82 42 -138t121 -56q84 0 161 54l13 -53q-86 -54 -182 -54q-107 0 -168.5 70t-61.5 172q0 104 63.5 174.5t173.5 70.5z"/>
<glyph glyph-name="igrave" horiz-adv-x="226" unicode="ì" d="M148 460v-460h-70v460h70zM179 552l-8 -3l-201 77q-4 9 -4 19q0 33 35 35l181 -101l3 -7z"/>
<glyph glyph-name="iacute" horiz-adv-x="226" unicode="í" d="M148 460v-460h-70v460h70zM28 549l-7 3l-6 20l3 7l180 101q17 -1 26.5 -10.5t9.5 -24.5q0 -10 -4 -19z"/>
<glyph glyph-name="icircumflex" horiz-adv-x="226" unicode="î" d="M148 460v-460h-70v460h70zM106 673h8l110 -99l3 -7l-6 -19l-7 -3l-104 61l-103 -61l-8 3l-6 19l3 7z"/>
<glyph glyph-name="idieresis" horiz-adv-x="226" unicode="ï" d="M148 460v-460h-70v460h70zM149 626q0 18 12 31.5t29 13.5t29.5 -13.5t12.5 -31.5t-12.5 -31t-29.5 -13t-29 12.5t-12 31.5zM-8 626q0 18 12 31.5t29 13.5t29.5 -13.5t12.5 -31.5t-12.5 -31t-29.5 -13t-29 12.5t-12 31.5z"/>
<glyph glyph-name="eth" horiz-adv-x="564" unicode="ð" d="M279 41q77 0 117.5 57t40.5 141q0 87 -43.5 134t-116.5 47q-78 0 -116 -52.5t-38 -130.5q0 -82 39.5 -139t116.5 -57zM271 740h73q40 -36 74 -94l117 31l18 -48l-112 -29q67 -144 67 -311q0 -62 -11 -113t-36 -95t-71 -68.5t-111 -24.5q-60 0 -105.5 21t-72 56.5 t-40 78.5t-13.5 91q0 103 59 171.5t174 68.5q123 0 161 -79l3 1q-27 120 -60 189l-125 -32l-17 46l118 31q-33 52 -90 109z"/>
<glyph glyph-name="ntilde" horiz-adv-x="545" unicode="ñ" d="M471 0h-70v304q0 112 -96 112q-52 0 -95.5 -32.5t-61.5 -88.5v-295h-70v460h55l8 -86h4q13 44 59 72.5t111 28.5q70 0 113 -38.5t43 -123.5v-313zM431 663q-7 -32 -28.5 -54.5t-59.5 -22.5q-28 0 -81.5 7t-73.5 7q-23 0 -33.5 -5.5t-21.5 -19.5l-13 8q25 76 91 76 q36 0 78 -7t65 -7q46 0 65 26z"/>
<glyph glyph-name="ograve" horiz-adv-x="561" unicode="ò" d="M283 41q77 0 116.5 52.5t39.5 132.5q0 82 -41.5 137.5t-120.5 55.5q-77 0 -116 -52t-39 -132q0 -82 41 -138t120 -56zM280 475q115 0 174 -71t59 -177q0 -104 -58 -171.5t-171 -67.5q-115 0 -175.5 69.5t-60.5 174.5q0 104 59.5 173.5t172.5 69.5zM349 552l-7 -3l-202 77 q-4 9 -4 19q0 15 9.5 24.5t25.5 10.5l181 -101l3 -7z"/>
<glyph glyph-name="oacute" horiz-adv-x="561" unicode="ó" d="M283 41q77 0 116.5 52.5t39.5 132.5q0 82 -41.5 137.5t-120.5 55.5q-77 0 -116 -52t-39 -132q0 -82 41 -138t120 -56zM280 475q115 0 174 -71t59 -177q0 -104 -58 -171.5t-171 -67.5q-115 0 -175.5 69.5t-60.5 174.5q0 104 59.5 173.5t172.5 69.5zM213 549l-7 3l-6 20 l3 7l180 101q17 -1 26.5 -10.5t9.5 -24.5q0 -10 -4 -19z"/>
<glyph glyph-name="ocircumflex" horiz-adv-x="561" unicode="ô" d="M283 41q77 0 116.5 52.5t39.5 132.5q0 82 -41.5 137.5t-120.5 55.5q-77 0 -116 -52t-39 -132q0 -82 41 -138t120 -56zM280 475q115 0 174 -71t59 -177q0 -104 -58 -171.5t-171 -67.5q-115 0 -175.5 69.5t-60.5 174.5q0 104 59.5 173.5t172.5 69.5zM285 673h7l110 -99 l3 -7l-5 -19l-8 -3l-104 61l-103 -61l-8 3l-6 19l3 7z"/>
<glyph glyph-name="otilde" horiz-adv-x="561" unicode="õ" d="M283 41q77 0 116.5 52.5t39.5 132.5q0 82 -41.5 137.5t-120.5 55.5q-77 0 -116 -52t-39 -132q0 -82 41 -138t120 -56zM280 475q115 0 174 -71t59 -177q0 -104 -58 -171.5t-171 -67.5q-115 0 -175.5 69.5t-60.5 174.5q0 104 59.5 173.5t172.5 69.5zM427 663 q-7 -32 -28.5 -54.5t-59.5 -22.5q-28 0 -81.5 7t-73.5 7q-23 0 -33.5 -5.5t-21.5 -19.5l-13 8q25 76 91 76q36 0 78 -7t65 -7q46 0 65 26z"/>
<glyph glyph-name="odieresis" horiz-adv-x="561" unicode="ö" d="M283 41q77 0 116.5 52.5t39.5 132.5q0 82 -41.5 137.5t-120.5 55.5q-77 0 -116 -52t-39 -132q0 -82 41 -138t120 -56zM280 475q115 0 174 -71t59 -177q0 -104 -58 -171.5t-171 -67.5q-115 0 -175.5 69.5t-60.5 174.5q0 104 59.5 173.5t172.5 69.5zM318 626q0 18 12 31.5 t29 13.5t29.5 -13.5t12.5 -31.5t-12.5 -31t-29.5 -13t-29 12.5t-12 31.5zM161 626q0 18 12 31.5t29 13.5t29.5 -13.5t12.5 -31.5t-12.5 -31t-29.5 -13t-29 12.5t-12 31.5z"/>
<glyph glyph-name="divide" horiz-adv-x="566" unicode="÷" d="M248 397q0 19 14 33.5t33 14.5q18 0 32.5 -14.5t14.5 -33.5q0 -18 -14.5 -32t-32.5 -14q-19 0 -33 13.5t-14 32.5zM248 80q0 19 14 33t33 14q18 0 32.5 -14t14.5 -33t-14.5 -33t-32.5 -14q-19 0 -33 13.5t-14 33.5zM77 265h414v-52h-414v52z"/>
<glyph glyph-name="oslash" horiz-adv-x="561" unicode="ø" d="M122 235q0 -63 23 -109l229 261q-40 32 -97 32q-77 0 -116 -52t-39 -132zM283 41q77 0 116.5 52.5t39.5 132.5q0 62 -24 110l-230 -262q39 -33 98 -33zM41 8l56 63q-49 65 -49 161q0 104 59.5 173.5t172.5 69.5q80 0 137 -39l51 58l51 -39l-56 -63q50 -66 50 -165 q0 -104 -58 -171.5t-171 -67.5q-85 0 -141 39l-54 -62z"/>
<glyph glyph-name="ugrave" horiz-adv-x="544" unicode="ù" d="M73 460h70v-304q0 -109 96 -109q52 0 96 31t61 87v295h70v-460h-55l-8 86h-4q-13 -43 -59 -70.5t-111 -27.5q-156 0 -156 159v313zM341 552l-8 -3l-201 77q-4 9 -4 19q0 33 35 35l180 -101l3 -7z"/>
<glyph glyph-name="uacute" horiz-adv-x="544" unicode="ú" d="M73 460h70v-304q0 -109 96 -109q52 0 96 31t61 87v295h70v-460h-55l-8 86h-4q-13 -43 -59 -70.5t-111 -27.5q-156 0 -156 159v313zM179 549l-8 3l-5 20l3 7l180 101q35 -2 35 -35q0 -9 -3 -19z"/>
<glyph glyph-name="ucircumflex" horiz-adv-x="544" unicode="û" d="M73 460h70v-304q0 -109 96 -109q52 0 96 31t61 87v295h70v-460h-55l-8 86h-4q-13 -43 -59 -70.5t-111 -27.5q-156 0 -156 159v313zM263 673h7l111 -99l2 -7l-5 -19l-8 -3l-104 61l-103 -61l-8 3l-5 19l2 7z"/>
<glyph glyph-name="udieresis" horiz-adv-x="544" unicode="ü" d="M73 460h70v-304q0 -109 96 -109q52 0 96 31t61 87v295h70v-460h-55l-8 86h-4q-13 -43 -59 -70.5t-111 -27.5q-156 0 -156 159v313zM303 626q0 18 12 31.5t29 13.5t29.5 -13.5t12.5 -31.5t-12.5 -31t-29.5 -13t-29 12.5t-12 31.5zM146 626q0 18 12 31.5t29 13.5 t29.5 -13.5t12.5 -31.5t-12.5 -31t-29.5 -13t-29 12.5t-12 31.5z"/>
<glyph glyph-name="yacute" horiz-adv-x="519" unicode="ý" d="M507 460l-211 -464q-14 -32 -19 -42.5t-22.5 -44t-29 -49.5t-32.5 -42.5t-40.5 -39.5t-45.5 -23.5t-53 -10.5q-12 0 -21 3l-13 66q12 -3 21 -3q43 0 72 20q64 45 115 185l-230 445h83l183 -383l164 383h79zM204 549l-7 3l-6 20l3 7l180 101q35 -2 35 -35q0 -12 -3 -19z "/>
<glyph glyph-name="thorn" horiz-adv-x="575" unicode="þ" d="M307 416q-48 0 -89.5 -26t-69.5 -75v-147q17 -55 64 -88t101 -33q67 0 103.5 51.5t36.5 130.5t-37 133t-109 54zM325 475q97 0 149.5 -69.5t52.5 -171.5q0 -105 -55.5 -175.5t-157.5 -70.5q-65 0 -109 28.5t-57 72.5v-349h-70v1000h70v-366q24 40 71 70.5t106 30.5z"/>
<glyph glyph-name="OE" horiz-adv-x="854" unicode="Œ" d="M373 54q43 0 77 9v527q-34 9 -75 9q-123 0 -179.5 -71t-56.5 -196q0 -137 60 -207.5t174 -70.5zM813 70v-70h-346q-43 -12 -96 -12q-102 0 -175 47t-106.5 121t-33.5 166q0 148 86 245.5t236 97.5q34 0 72 -5h343v-70h-268v-205h201v-70h-201v-245h288z"/>
<glyph glyph-name="oe" horiz-adv-x="912" unicode="œ" d="M677 418q-62 0 -100 -33t-52 -88h273q1 6 1 18q0 49 -35.5 76t-86.5 27zM283 40q77 0 116.5 52.5t39.5 132.5q0 82 -41.5 137.5t-120.5 55.5q-77 0 -116 -52t-39 -132q0 -82 41 -138t120 -56zM680 474q88 0 136 -44.5t48 -125.5q0 -44 -9 -60h-337v-10q0 -82 42 -138 t121 -56q84 0 161 54l13 -53q-86 -54 -182 -54q-66 0 -116 27.5t-79 74.5q-59 -102 -194 -102q-115 0 -175.5 69.5t-60.5 174.5q0 104 59.5 173.5t172.5 69.5q136 0 197 -107q64 107 203 107z"/>
<glyph glyph-name="Scaron" horiz-adv-x="551" unicode="Š" d="M138 501q0 -46 33.5 -67.5t133.5 -54.5q46 -15 75 -28.5t61 -36.5t48 -57.5t16 -80.5q0 -96 -68 -142t-170 -46q-119 0 -218 55l21 73q46 -31 87 -46.5t104 -15.5q86 0 126.5 29t40.5 79q0 26 -11.5 47.5t-26 35.5t-42 28t-45 20.5t-49.5 16.5q-96 32 -142.5 72.5 t-46.5 115.5q0 85 58.5 126t154.5 41q106 0 189 -38l-21 -77q-57 49 -172 49q-136 0 -136 -98zM281 713h-7l-111 99l-2 7l5 20l8 3l103 -62l104 62l8 -3l5 -20l-2 -7z"/>
<glyph glyph-name="scaron" horiz-adv-x="441" unicode="š" d="M213 419q-91 0 -91 -65q0 -56 76 -73l71 -16q130 -29 130 -129q0 -64 -49.5 -106t-132.5 -42q-98 0 -170 50l18 65q34 -31 77.5 -47t81.5 -16q47 0 74.5 23.5t27.5 52.5q0 66 -70 83l-96 24q-109 28 -109 118q0 61 45.5 97.5t121.5 36.5q98 0 160 -41l-19 -60 q-22 18 -62 31.5t-84 13.5zM219 545h-7l-111 99l-2 6l5 20l8 3l103 -62l104 62l8 -3l5 -20l-2 -6z"/>
<glyph glyph-name="Ydieresis" horiz-adv-x="566" unicode="Ÿ" d="M246 267l-257 393h89l209 -317l202 317h87l-255 -389v-271h-75v267zM324 794q0 18 12 31.5t28 13.5q17 0 29.5 -13.5t12.5 -31.5t-12.5 -31t-29.5 -13t-28.5 12.5t-11.5 31.5zM167 794q0 18 12 31.5t29 13.5q16 0 28.5 -13.5t12.5 -31.5t-12.5 -31t-28.5 -13 q-17 0 -29 12.5t-12 31.5z"/>
<glyph glyph-name="circumflex" horiz-adv-x="234" unicode="ˆ" d="M113 673h8l110 -99l3 -7l-6 -19l-7 -3l-104 61l-104 -61l-7 3l-6 19l3 7z"/>
<glyph glyph-name="tilde" horiz-adv-x="311" unicode="˜" d="M311 663q-7 -32 -28.5 -54.5t-59.5 -22.5q-28 0 -81.5 7t-73.5 7q-23 0 -33.5 -5.5t-21.5 -19.5l-13 8q25 76 91 76q36 0 78 -7t65 -7q46 0 65 26z"/>
<glyph glyph-name="uni03BC" horiz-adv-x="552" unicode="μ" d="M81 460h70v-304q0 -109 96 -109q52 0 96 31t61 87v295h70v-460h-55l-8 86h-4q-13 -43 -59 -70.5t-111 -27.5q-72 0 -111 35l-3 -13q-17 -74 -54 -150l-64 29q40 76 58 133t18 125v313z"/>
<glyph glyph-name="endash" horiz-adv-x="562" unicode="–" d="M74 265h414v-52h-414v52z"/>
<glyph glyph-name="emdash" horiz-adv-x="790" unicode="—" d="M74 265h642v-52h-642v52z"/>
<glyph glyph-name="quoteleft" horiz-adv-x="225" unicode="‘" d="M146 734l20 -19l-39 -73h25v-90h-79v105z"/>
<glyph glyph-name="quotesinglbase" horiz-adv-x="243" unicode="‚" d="M88 -97l-20 19l39 73h-25v90h79v-105z"/>
<glyph glyph-name="quotedblleft" horiz-adv-x="375" unicode="“" d="M296 734l20 -19l-39 -73h25v-90h-79v105zM146 734l20 -19l-39 -73h25v-90h-79v105z"/>
<glyph glyph-name="quotedblright" horiz-adv-x="355" unicode="”" d="M82 552l-20 19l39 73h-25v90h79v-105zM232 552l-20 19l39 73h-25v90h79v-105z"/>
<glyph glyph-name="dagger" horiz-adv-x="466" unicode="†" d="M278 109h-90l12 228v97h-10l-154 -12v73l154 -12h10l-12 209h90l-12 -209h9l155 12v-73l-155 12h-9v-97z"/>
<glyph glyph-name="daggerdbl" horiz-adv-x="508" unicode="‡" d="M299 -71h-90l11 209h-9l-154 -13v74l154 -13h10v248h-10l-154 -12v73l154 -12h10l-12 209h90l-12 -209h9l155 12v-73l-155 12h-9v-248h9l155 13v-74l-155 13h-9z"/>
<glyph glyph-name="ellipsis" horiz-adv-x="613" unicode="…" d="M449 35q0 19 13.5 33.5t32.5 14.5t33.5 -14.5t14.5 -33.5t-14.5 -32.5t-33.5 -13.5t-32.5 13.5t-13.5 32.5zM260 35q0 19 13.5 33.5t32.5 14.5t33.5 -14.5t14.5 -33.5t-14.5 -32.5t-33.5 -13.5t-32.5 13.5t-13.5 32.5zM71 35q0 19 13.5 33.5t32.5 14.5t33.5 -14.5 t14.5 -33.5t-14.5 -32.5t-33.5 -13.5t-32.5 13.5t-13.5 32.5z"/>
<glyph glyph-name="perthousand" horiz-adv-x="1178" unicode="‰" d="M993 38q48 0 71.5 38.5t23.5 101.5q0 65 -24 103t-70 38q-89 0 -89 -137q0 -71 23 -107.5t65 -36.5zM996 364q67 0 107 -53.5t40 -130.5t-40.5 -132t-110.5 -55q-68 0 -105.5 52.5t-37.5 130.5q0 81 40 134.5t107 53.5zM633 38q48 0 71.5 38.5t23.5 101.5q0 65 -24 103 t-70 38q-89 0 -89 -137q0 -71 23 -107.5t65 -36.5zM636 364q67 0 107 -53.5t40 -130.5t-40.5 -132t-110.5 -55q-68 0 -105.5 52.5t-37.5 130.5q0 81 40 134.5t107 53.5zM674 691l-463 -715h-65l463 715h65zM185 339q48 0 71.5 38.5t23.5 101.5q0 65 -24 103t-70 38 q-89 0 -89 -137q0 -71 23 -107.5t65 -36.5zM188 665q67 0 107 -53.5t40 -130.5t-40.5 -132t-110.5 -55q-68 0 -105.5 52.5t-37.5 130.5q0 81 40 134.5t107 53.5z"/>
<glyph glyph-name="guilsinglleft" horiz-adv-x="322" unicode="‹" d="M121 243v-5l144 -177h-80l-133 177v5l134 177h79z"/>
<glyph glyph-name="guilsinglright" horiz-adv-x="322" unicode="›" d="M201 238v5l-144 177h79l134 -177v-5l-133 -177h-80z"/>
<glyph glyph-name="fraction" horiz-adv-x="509" unicode="⁄" d="M519 691l-463 -715h-65l463 715h65z"/>
<glyph glyph-name="Euro" horiz-adv-x="623" unicode="€" d="M42 412h84q20 114 89.5 183.5t178.5 69.5q100 0 171 -43l-21 -72q-63 49 -156 49q-157 0 -182 -187h255v-52h-260v-53h260v-52h-256q26 -201 181 -201q105 0 171 62l20 -67q-90 -61 -194 -61q-113 0 -179.5 74t-81.5 193h-80v52h76q0 39 1 53h-77v52z"/>
<glyph glyph-name="trademark" horiz-adv-x="691" unicode="™" d="M279 653v-39h-84v-245h-47v245h-84v39h215zM438 369l-84 210v-210h-38v284h48l98 -242l97 242h47v-284h-39v209l-84 -209h-45z"/>
<glyph glyph-name="minus" horiz-adv-x="566" unicode="−" d="M76 265h414v-52h-414v52z"/>
</font>
</defs>
</svg>
